<?xml version="1.0" encoding="UTF-8" standalone="no" ?>
<!DOCTYPE svg PUBLIC "-//W3C//DTD SVG 1.1//EN" "http://www.w3.org/Graphics/SVG/1.1/DTD/svg11.dtd">
<svg xmlns="http://www.w3.org/2000/svg" xmlns:xlink="http://www.w3.org/1999/xlink" version="1.1" width="192" height="192" viewBox="0 0 192 192" xml:space="preserve">
<desc>Created with Fabric.js 4.6.0</desc>
<defs>
</defs>
<g transform="matrix(1 0 0 1 96 96)" id="I8YMI2EQkd8Fk90QMXGQL"  >
<radialGradient id="SVGID_1485" gradientUnits="userSpaceOnUse" gradientTransform="matrix(1 0 0 1 0 0)"  cx="95.5" cy="95.49999999999999" r="296.5936881119834" fx="95.5" fy="95.49999999999999">
<stop offset="0%" style="stop-color:#5C5C5C;stop-opacity: 1"/>
<stop offset="46.93868886004544%" style="stop-color:#000000;stop-opacity: 1"/>
<stop offset="100%" style="stop-color:#000000;stop-opacity: 1"/>
</radialGradient>
<filter id="SVGID_22" y="-20%" height="140%" x="-20%" width="140%" >
	<feGaussianBlur in="SourceAlpha" stdDeviation="0"></feGaussianBlur>
	<feOffset dx="0" dy="0" result="oBlur" ></feOffset>
	<feFlood flood-color="rgb(0,0,0)" flood-opacity="1"/>
	<feComposite in2="oBlur" operator="in" />
	<feMerge>
		<feMergeNode></feMergeNode>
		<feMergeNode in="SourceGraphic"></feMergeNode>
	</feMerge>
</filter>
<path style="stroke: rgb(239,182,127); stroke-width: 0; stroke-dasharray: none; stroke-linecap: butt; stroke-dashoffset: 0; stroke-linejoin: miter; stroke-miterlimit: 4; fill: url(#SVGID_1485); fill-rule: nonzero; opacity: 1;filter: url(#SVGID_22);" vector-effect="non-scaling-stroke"  transform=" translate(-95.5, -95.5)" d="M 0 40.51722 C 0 18.14018 18.14018 0 40.51722 0 L 150.48278 0 L 150.48278 0 C 172.85981999999998 0 191 18.14018 191 40.51722 L 191 150.48278 L 191 150.48278 C 191 172.85981999999998 172.85982 191 150.48278 191 L 40.517219999999995 191 L 40.517219999999995 191 C 18.140179999999994 191 -7.105427357601002e-15 172.85982 -7.105427357601002e-15 150.48278 z" stroke-linecap="round" />
</g>
<g transform="matrix(2.65 0 0 2.49 96 104.07)" style="" id="TmdiNUn5Sido0s0qYEI2t"  >
		<text xml:space="preserve" font-family="Raleway" font-size="32" font-style="normal" font-weight="normal" line-height="1.16" style="stroke: none; stroke-width: 1; stroke-dasharray: none; stroke-linecap: butt; stroke-dashoffset: 0; stroke-linejoin: miter; stroke-miterlimit: 4; fill: rgb(255,255,255); fill-rule: nonzero; opacity: 1; white-space: pre;" ><tspan x="-26.59" y="10.05" >WA</tspan></text>
</g>
</svg>